%TF.GenerationSoftware,KiCad,Pcbnew,7.0.8*%
%TF.CreationDate,2023-10-19T20:38:54-05:00*%
%TF.ProjectId,VesselV2,56657373-656c-4563-922e-6b696361645f,rev?*%
%TF.SameCoordinates,Original*%
%TF.FileFunction,Soldermask,Bot*%
%TF.FilePolarity,Negative*%
%FSLAX46Y46*%
G04 Gerber Fmt 4.6, Leading zero omitted, Abs format (unit mm)*
G04 Created by KiCad (PCBNEW 7.0.8) date 2023-10-19 20:38:54*
%MOMM*%
%LPD*%
G01*
G04 APERTURE LIST*
G04 Aperture macros list*
%AMRoundRect*
0 Rectangle with rounded corners*
0 $1 Rounding radius*
0 $2 $3 $4 $5 $6 $7 $8 $9 X,Y pos of 4 corners*
0 Add a 4 corners polygon primitive as box body*
4,1,4,$2,$3,$4,$5,$6,$7,$8,$9,$2,$3,0*
0 Add four circle primitives for the rounded corners*
1,1,$1+$1,$2,$3*
1,1,$1+$1,$4,$5*
1,1,$1+$1,$6,$7*
1,1,$1+$1,$8,$9*
0 Add four rect primitives between the rounded corners*
20,1,$1+$1,$2,$3,$4,$5,0*
20,1,$1+$1,$4,$5,$6,$7,0*
20,1,$1+$1,$6,$7,$8,$9,0*
20,1,$1+$1,$8,$9,$2,$3,0*%
G04 Aperture macros list end*
%ADD10C,1.750000*%
%ADD11C,3.987800*%
%ADD12C,2.300000*%
%ADD13O,1.700000X2.700000*%
%ADD14C,4.000000*%
%ADD15RoundRect,0.225000X0.375000X-0.225000X0.375000X0.225000X-0.375000X0.225000X-0.375000X-0.225000X0*%
%ADD16RoundRect,0.250001X0.624999X-0.462499X0.624999X0.462499X-0.624999X0.462499X-0.624999X-0.462499X0*%
%ADD17RoundRect,0.250000X-0.097227X0.574524X-0.574524X0.097227X0.097227X-0.574524X0.574524X-0.097227X0*%
G04 APERTURE END LIST*
D10*
%TO.C,MX89*%
X294957500Y-190500000D03*
D11*
X300037500Y-190500000D03*
D10*
X305117500Y-190500000D03*
D12*
X296227500Y-187960000D03*
X302577500Y-185420000D03*
%TD*%
D10*
%TO.C,MX84*%
X199707500Y-190500000D03*
D11*
X204787500Y-190500000D03*
D10*
X209867500Y-190500000D03*
D12*
X200977500Y-187960000D03*
X207327500Y-185420000D03*
%TD*%
D10*
%TO.C,MX15*%
X418782500Y-85725000D03*
D11*
X423862500Y-85725000D03*
D10*
X428942500Y-85725000D03*
D12*
X420052500Y-83185000D03*
X426402500Y-80645000D03*
%TD*%
D10*
%TO.C,MX7*%
X228282500Y-85725000D03*
D11*
X233362500Y-85725000D03*
D10*
X238442500Y-85725000D03*
D12*
X229552500Y-83185000D03*
X235902500Y-80645000D03*
%TD*%
D13*
%TO.C,USB1*%
X267175000Y-49475000D03*
X259875000Y-49475000D03*
X267175000Y-53975000D03*
X259875000Y-53975000D03*
%TD*%
D10*
%TO.C,MX71*%
X247332500Y-171450000D03*
D11*
X252412500Y-171450000D03*
D10*
X257492500Y-171450000D03*
D12*
X248602500Y-168910000D03*
X254952500Y-166370000D03*
%TD*%
D10*
%TO.C,MX88*%
X275907500Y-190500000D03*
D11*
X280987500Y-190500000D03*
D10*
X286067500Y-190500000D03*
D12*
X277177500Y-187960000D03*
X283527500Y-185420000D03*
%TD*%
D14*
%TO.C,S2*%
X373697500Y-150018750D03*
D11*
X358457500Y-150018750D03*
D14*
X373697500Y-173831250D03*
D11*
X358457500Y-173831250D03*
%TD*%
D10*
%TO.C,MX61*%
X361632500Y-161925000D03*
D11*
X366712500Y-161925000D03*
D10*
X371792500Y-161925000D03*
D12*
X362902500Y-159385000D03*
X369252500Y-156845000D03*
%TD*%
D10*
%TO.C,MX31*%
X418782500Y-109537500D03*
D11*
X423862500Y-109537500D03*
D10*
X428942500Y-109537500D03*
D12*
X420052500Y-106997500D03*
X426402500Y-104457500D03*
%TD*%
D10*
%TO.C,MX58*%
X299720000Y-152400000D03*
D11*
X304800000Y-152400000D03*
D10*
X309880000Y-152400000D03*
D12*
X300990000Y-149860000D03*
X307340000Y-147320000D03*
%TD*%
D10*
%TO.C,MX62*%
X399732500Y-152400000D03*
D11*
X404812500Y-152400000D03*
D10*
X409892500Y-152400000D03*
D12*
X401002500Y-149860000D03*
X407352500Y-147320000D03*
%TD*%
D10*
%TO.C,MX92*%
X366395000Y-190500000D03*
D11*
X371475000Y-190500000D03*
D10*
X376555000Y-190500000D03*
D12*
X367665000Y-187960000D03*
X374015000Y-185420000D03*
%TD*%
D10*
%TO.C,MX73*%
X285432500Y-171450000D03*
D11*
X290512500Y-171450000D03*
D10*
X295592500Y-171450000D03*
D12*
X286702500Y-168910000D03*
X293052500Y-166370000D03*
%TD*%
D10*
%TO.C,MX67*%
X171132500Y-171450000D03*
D11*
X176212500Y-171450000D03*
D10*
X181292500Y-171450000D03*
D12*
X172402500Y-168910000D03*
X178752500Y-166370000D03*
%TD*%
D10*
%TO.C,MX66*%
X152082500Y-171450000D03*
D11*
X157162500Y-171450000D03*
D10*
X162242500Y-171450000D03*
D12*
X153352500Y-168910000D03*
X159702500Y-166370000D03*
%TD*%
D10*
%TO.C,MX6*%
X204470000Y-85725000D03*
D11*
X209550000Y-85725000D03*
D10*
X214630000Y-85725000D03*
D12*
X205740000Y-83185000D03*
X212090000Y-80645000D03*
%TD*%
D10*
%TO.C,MX26*%
X318770000Y-109537500D03*
D11*
X323850000Y-109537500D03*
D10*
X328930000Y-109537500D03*
D12*
X320040000Y-106997500D03*
X326390000Y-104457500D03*
%TD*%
D10*
%TO.C,MX17*%
X128270000Y-109537500D03*
D11*
X133350000Y-109537500D03*
D10*
X138430000Y-109537500D03*
D12*
X129540000Y-106997500D03*
X135890000Y-104457500D03*
%TD*%
D10*
%TO.C,MX42*%
X290195000Y-133350000D03*
D11*
X295275000Y-133350000D03*
D10*
X300355000Y-133350000D03*
D12*
X291465000Y-130810000D03*
X297815000Y-128270000D03*
%TD*%
D10*
%TO.C,MX77*%
X399732500Y-171450000D03*
D11*
X404812500Y-171450000D03*
D10*
X409892500Y-171450000D03*
D12*
X401002500Y-168910000D03*
X407352500Y-166370000D03*
%TD*%
D10*
%TO.C,MX10*%
X290195000Y-85725000D03*
D11*
X295275000Y-85725000D03*
D10*
X300355000Y-85725000D03*
D12*
X291465000Y-83185000D03*
X297815000Y-80645000D03*
%TD*%
D10*
%TO.C,MX95*%
X125888800Y-209550000D03*
D11*
X130968800Y-209550000D03*
D10*
X136048800Y-209550000D03*
D12*
X127158800Y-207010000D03*
X133508800Y-204470000D03*
%TD*%
D10*
%TO.C,MX75*%
X323532500Y-171450000D03*
D11*
X328612500Y-171450000D03*
D10*
X333692500Y-171450000D03*
D12*
X324802500Y-168910000D03*
X331152500Y-166370000D03*
%TD*%
D10*
%TO.C,MX101*%
X366395000Y-209550000D03*
D11*
X371475000Y-209550000D03*
D10*
X376555000Y-209550000D03*
D12*
X367665000Y-207010000D03*
X374015000Y-204470000D03*
%TD*%
D10*
%TO.C,MX20*%
X185270000Y-109537500D03*
D11*
X190350000Y-109537500D03*
D10*
X195430000Y-109537500D03*
D12*
X186540000Y-106997500D03*
X192890000Y-104457500D03*
%TD*%
D10*
%TO.C,MX87*%
X256857500Y-190500000D03*
D11*
X261937500Y-190500000D03*
D10*
X267017500Y-190500000D03*
D12*
X258127500Y-187960000D03*
X264477500Y-185420000D03*
%TD*%
D10*
%TO.C,MX24*%
X271145000Y-109537500D03*
D11*
X276225000Y-109537500D03*
D10*
X281305000Y-109537500D03*
D12*
X272415000Y-106997500D03*
X278765000Y-104457500D03*
%TD*%
D10*
%TO.C,MX94*%
X102076300Y-209550000D03*
D11*
X107156300Y-209550000D03*
D10*
X112236300Y-209550000D03*
D12*
X103346300Y-207010000D03*
X109696300Y-204470000D03*
%TD*%
D10*
%TO.C,MX51*%
X166370000Y-152400000D03*
D11*
X171450000Y-152400000D03*
D10*
X176530000Y-152400000D03*
D12*
X167640000Y-149860000D03*
X173990000Y-147320000D03*
%TD*%
D10*
%TO.C,MX80*%
X123507500Y-190500000D03*
D11*
X128587500Y-190500000D03*
D10*
X133667500Y-190500000D03*
D12*
X124777500Y-187960000D03*
X131127500Y-185420000D03*
%TD*%
D10*
%TO.C,MX39*%
X233045000Y-133350000D03*
D11*
X238125000Y-133350000D03*
D10*
X243205000Y-133350000D03*
D12*
X234315000Y-130810000D03*
X240665000Y-128270000D03*
%TD*%
D10*
%TO.C,MX100*%
X347345000Y-209550000D03*
D11*
X352425000Y-209550000D03*
D10*
X357505000Y-209550000D03*
D12*
X348615000Y-207010000D03*
X354965000Y-204470000D03*
%TD*%
D10*
%TO.C,MX49*%
X128270000Y-152400000D03*
D11*
X133350000Y-152400000D03*
D10*
X138430000Y-152400000D03*
D12*
X129540000Y-149860000D03*
X135890000Y-147320000D03*
%TD*%
D10*
%TO.C,MX34*%
X137795000Y-133350000D03*
D11*
X142875000Y-133350000D03*
D10*
X147955000Y-133350000D03*
D12*
X139065000Y-130810000D03*
X145415000Y-128270000D03*
%TD*%
D10*
%TO.C,MX102*%
X385445000Y-209550000D03*
D11*
X390525000Y-209550000D03*
D10*
X395605000Y-209550000D03*
D12*
X386715000Y-207010000D03*
X393065000Y-204470000D03*
%TD*%
D10*
%TO.C,MX65*%
X133032500Y-171450000D03*
D11*
X138112500Y-171450000D03*
D10*
X143192500Y-171450000D03*
D12*
X134302500Y-168910000D03*
X140652500Y-166370000D03*
%TD*%
D10*
%TO.C,MX18*%
X147270000Y-109537500D03*
D11*
X152350000Y-109537500D03*
D10*
X157430000Y-109537500D03*
D12*
X148540000Y-106997500D03*
X154890000Y-104457500D03*
%TD*%
D10*
%TO.C,MX16*%
X99695000Y-109537500D03*
D11*
X104775000Y-109537500D03*
D10*
X109855000Y-109537500D03*
D12*
X100965000Y-106997500D03*
X107315000Y-104457500D03*
%TD*%
D10*
%TO.C,MX74*%
X304482500Y-171450000D03*
D11*
X309562500Y-171450000D03*
D10*
X314642500Y-171450000D03*
D12*
X305752500Y-168910000D03*
X312102500Y-166370000D03*
%TD*%
D10*
%TO.C,MX91*%
X340201300Y-190500000D03*
D11*
X345281300Y-190500000D03*
D10*
X350361300Y-190500000D03*
D12*
X341471300Y-187960000D03*
X347821300Y-185420000D03*
%TD*%
D10*
%TO.C,MX46*%
X399732500Y-133350000D03*
D11*
X404812500Y-133350000D03*
D10*
X409892500Y-133350000D03*
D12*
X401002500Y-130810000D03*
X407352500Y-128270000D03*
%TD*%
D10*
%TO.C,MX21*%
X213995000Y-109537500D03*
D11*
X219075000Y-109537500D03*
D10*
X224155000Y-109537500D03*
D12*
X215265000Y-106997500D03*
X221615000Y-104457500D03*
%TD*%
D10*
%TO.C,MX11*%
X314007500Y-85725000D03*
D11*
X319087500Y-85725000D03*
D10*
X324167500Y-85725000D03*
D12*
X315277500Y-83185000D03*
X321627500Y-80645000D03*
%TD*%
D10*
%TO.C,MX72*%
X266382500Y-171450000D03*
D11*
X271462500Y-171450000D03*
D10*
X276542500Y-171450000D03*
D12*
X267652500Y-168910000D03*
X274002500Y-166370000D03*
%TD*%
D10*
%TO.C,MX19*%
X166270000Y-109537500D03*
D11*
X171350000Y-109537500D03*
D10*
X176430000Y-109537500D03*
D12*
X167540000Y-106997500D03*
X173890000Y-104457500D03*
%TD*%
D10*
%TO.C,MX25*%
X299720000Y-109537500D03*
D11*
X304800000Y-109537500D03*
D10*
X309880000Y-109537500D03*
D12*
X300990000Y-106997500D03*
X307340000Y-104457500D03*
%TD*%
D10*
%TO.C,MX64*%
X106838800Y-171450000D03*
D11*
X111918800Y-171450000D03*
D10*
X116998800Y-171450000D03*
D12*
X108108800Y-168910000D03*
X114458800Y-166370000D03*
%TD*%
D10*
%TO.C,MX44*%
X328295000Y-133350000D03*
D11*
X333375000Y-133350000D03*
D10*
X338455000Y-133350000D03*
D12*
X329565000Y-130810000D03*
X335915000Y-128270000D03*
%TD*%
D10*
%TO.C,MX35*%
X156845000Y-133350000D03*
D11*
X161925000Y-133350000D03*
D10*
X167005000Y-133350000D03*
D12*
X158115000Y-130810000D03*
X164465000Y-128270000D03*
%TD*%
D10*
%TO.C,MX5*%
X185420000Y-85725000D03*
D11*
X190500000Y-85725000D03*
D10*
X195580000Y-85725000D03*
D12*
X186690000Y-83185000D03*
X193040000Y-80645000D03*
%TD*%
D10*
%TO.C,MX48*%
X104457500Y-152400000D03*
D11*
X109537500Y-152400000D03*
D10*
X114617500Y-152400000D03*
D12*
X105727500Y-149860000D03*
X112077500Y-147320000D03*
%TD*%
D14*
%TO.C,S1*%
X373856250Y-140335000D03*
D11*
X373856250Y-125095000D03*
D14*
X350043750Y-140335000D03*
D11*
X350043750Y-125095000D03*
%TD*%
D10*
%TO.C,MX45*%
X356870000Y-133350000D03*
D11*
X361950000Y-133350000D03*
D10*
X367030000Y-133350000D03*
D12*
X358140000Y-130810000D03*
X364490000Y-128270000D03*
%TD*%
D10*
%TO.C,MX43*%
X309245000Y-133350000D03*
D11*
X314325000Y-133350000D03*
D10*
X319405000Y-133350000D03*
D12*
X310515000Y-130810000D03*
X316865000Y-128270000D03*
%TD*%
D10*
%TO.C,MX41*%
X271145000Y-133350000D03*
D11*
X276225000Y-133350000D03*
D10*
X281305000Y-133350000D03*
D12*
X272415000Y-130810000D03*
X278765000Y-128270000D03*
%TD*%
D10*
%TO.C,MX85*%
X218757500Y-190500000D03*
D11*
X223837500Y-190500000D03*
D10*
X228917500Y-190500000D03*
D12*
X220027500Y-187960000D03*
X226377500Y-185420000D03*
%TD*%
D10*
%TO.C,MX82*%
X161607500Y-190500000D03*
D11*
X166687500Y-190500000D03*
D10*
X171767500Y-190500000D03*
D12*
X162877500Y-187960000D03*
X169227500Y-185420000D03*
%TD*%
D10*
%TO.C,MX78*%
X418782500Y-171450000D03*
D11*
X423862500Y-171450000D03*
D10*
X428942500Y-171450000D03*
D12*
X420052500Y-168910000D03*
X426402500Y-166370000D03*
%TD*%
D10*
%TO.C,MX97*%
X221138800Y-209550000D03*
D11*
X226218800Y-209550000D03*
D10*
X231298800Y-209550000D03*
D12*
X222408800Y-207010000D03*
X228758800Y-204470000D03*
%TD*%
D10*
%TO.C,MX32*%
X99695000Y-133350000D03*
D11*
X104775000Y-133350000D03*
D10*
X109855000Y-133350000D03*
D12*
X100965000Y-130810000D03*
X107315000Y-128270000D03*
%TD*%
D10*
%TO.C,MX81*%
X142557500Y-190500000D03*
D11*
X147637500Y-190500000D03*
D10*
X152717500Y-190500000D03*
D12*
X143827500Y-187960000D03*
X150177500Y-185420000D03*
%TD*%
D10*
%TO.C,MX4*%
X161607500Y-85725000D03*
D11*
X166687500Y-85725000D03*
D10*
X171767500Y-85725000D03*
D12*
X162877500Y-83185000D03*
X169227500Y-80645000D03*
%TD*%
D10*
%TO.C,MX27*%
X337820000Y-109537500D03*
D11*
X342900000Y-109537500D03*
D10*
X347980000Y-109537500D03*
D12*
X339090000Y-106997500D03*
X345440000Y-104457500D03*
%TD*%
D10*
%TO.C,MX53*%
X204470000Y-152400000D03*
D11*
X209550000Y-152400000D03*
D10*
X214630000Y-152400000D03*
D12*
X205740000Y-149860000D03*
X212090000Y-147320000D03*
%TD*%
D10*
%TO.C,MX3*%
X142557500Y-85725000D03*
D11*
X147637500Y-85725000D03*
D10*
X152717500Y-85725000D03*
D12*
X143827500Y-83185000D03*
X150177500Y-80645000D03*
%TD*%
D10*
%TO.C,MX12*%
X333057500Y-85725000D03*
D11*
X338137500Y-85725000D03*
D10*
X343217500Y-85725000D03*
D12*
X334327500Y-83185000D03*
X340677500Y-80645000D03*
%TD*%
D10*
%TO.C,MX52*%
X185420000Y-152400000D03*
D11*
X190500000Y-152400000D03*
D10*
X195580000Y-152400000D03*
D12*
X186690000Y-149860000D03*
X193040000Y-147320000D03*
%TD*%
D10*
%TO.C,MX98*%
X292576300Y-209550000D03*
D11*
X297656300Y-209550000D03*
D10*
X302736300Y-209550000D03*
D12*
X293846300Y-207010000D03*
X300196300Y-204470000D03*
%TD*%
D10*
%TO.C,MX83*%
X180657500Y-190500000D03*
D11*
X185737500Y-190500000D03*
D10*
X190817500Y-190500000D03*
D12*
X181927500Y-187960000D03*
X188277500Y-185420000D03*
%TD*%
D10*
%TO.C,MX47*%
X418782500Y-133350000D03*
D11*
X423862500Y-133350000D03*
D10*
X428942500Y-133350000D03*
D12*
X420052500Y-130810000D03*
X426402500Y-128270000D03*
%TD*%
D10*
%TO.C,MX38*%
X213995000Y-133350000D03*
D11*
X219075000Y-133350000D03*
D10*
X224155000Y-133350000D03*
D12*
X215265000Y-130810000D03*
X221615000Y-128270000D03*
%TD*%
D10*
%TO.C,MX37*%
X194945000Y-133350000D03*
D11*
X200025000Y-133350000D03*
D10*
X205105000Y-133350000D03*
D12*
X196215000Y-130810000D03*
X202565000Y-128270000D03*
%TD*%
D10*
%TO.C,MX22*%
X233045000Y-109537500D03*
D11*
X238125000Y-109537500D03*
D10*
X243205000Y-109537500D03*
D12*
X234315000Y-106997500D03*
X240665000Y-104457500D03*
%TD*%
D10*
%TO.C,MX14*%
X399732500Y-85725000D03*
D11*
X404812500Y-85725000D03*
D10*
X409892500Y-85725000D03*
D12*
X401002500Y-83185000D03*
X407352500Y-80645000D03*
%TD*%
D10*
%TO.C,MX1*%
X99695000Y-85725000D03*
D11*
X104775000Y-85725000D03*
D10*
X109855000Y-85725000D03*
D12*
X100965000Y-83185000D03*
X107315000Y-80645000D03*
%TD*%
D10*
%TO.C,MX13*%
X380682500Y-85725000D03*
D11*
X385762500Y-85725000D03*
D10*
X390842500Y-85725000D03*
D12*
X381952500Y-83185000D03*
X388302500Y-80645000D03*
%TD*%
D10*
%TO.C,MX55*%
X242570000Y-152400000D03*
D11*
X247650000Y-152400000D03*
D10*
X252730000Y-152400000D03*
D12*
X243840000Y-149860000D03*
X250190000Y-147320000D03*
%TD*%
D10*
%TO.C,MX63*%
X418782500Y-152400000D03*
D11*
X423862500Y-152400000D03*
D10*
X428942500Y-152400000D03*
D12*
X420052500Y-149860000D03*
X426402500Y-147320000D03*
%TD*%
D10*
%TO.C,MX93*%
X418782500Y-190500000D03*
D11*
X423862500Y-190500000D03*
D10*
X428942500Y-190500000D03*
D12*
X420052500Y-187960000D03*
X426402500Y-185420000D03*
%TD*%
D10*
%TO.C,MX9*%
X271145000Y-85725000D03*
D11*
X276225000Y-85725000D03*
D10*
X281305000Y-85725000D03*
D12*
X272415000Y-83185000D03*
X278765000Y-80645000D03*
%TD*%
D10*
%TO.C,MX33*%
X118745000Y-133350000D03*
D11*
X123825000Y-133350000D03*
D10*
X128905000Y-133350000D03*
D12*
X120015000Y-130810000D03*
X126365000Y-128270000D03*
%TD*%
D10*
%TO.C,MX57*%
X280670000Y-152400000D03*
D11*
X285750000Y-152400000D03*
D10*
X290830000Y-152400000D03*
D12*
X281940000Y-149860000D03*
X288290000Y-147320000D03*
%TD*%
D10*
%TO.C,MX2*%
X118745000Y-85725000D03*
D11*
X123825000Y-85725000D03*
D10*
X128905000Y-85725000D03*
D12*
X120015000Y-83185000D03*
X126365000Y-80645000D03*
%TD*%
D10*
%TO.C,MX28*%
X356870000Y-109537500D03*
D11*
X361950000Y-109537500D03*
D10*
X367030000Y-109537500D03*
D12*
X358140000Y-106997500D03*
X364490000Y-104457500D03*
%TD*%
D10*
%TO.C,MX70*%
X228282500Y-171450000D03*
D11*
X233362500Y-171450000D03*
D10*
X238442500Y-171450000D03*
D12*
X229552500Y-168910000D03*
X235902500Y-166370000D03*
%TD*%
D10*
%TO.C,MX40*%
X252095000Y-133350000D03*
D11*
X257175000Y-133350000D03*
D10*
X262255000Y-133350000D03*
D12*
X253365000Y-130810000D03*
X259715000Y-128270000D03*
%TD*%
D10*
%TO.C,MX23*%
X252095000Y-109537500D03*
D11*
X257175000Y-109537500D03*
D10*
X262255000Y-109537500D03*
D12*
X253365000Y-106997500D03*
X259715000Y-104457500D03*
%TD*%
D10*
%TO.C,MX56*%
X261620000Y-152400000D03*
D11*
X266700000Y-152400000D03*
D10*
X271780000Y-152400000D03*
D12*
X262890000Y-149860000D03*
X269240000Y-147320000D03*
%TD*%
D10*
%TO.C,MX30*%
X399732500Y-109537500D03*
D11*
X404812500Y-109537500D03*
D10*
X409892500Y-109537500D03*
D12*
X401002500Y-106997500D03*
X407352500Y-104457500D03*
%TD*%
D10*
%TO.C,MX69*%
X209232500Y-171450000D03*
D11*
X214312500Y-171450000D03*
D10*
X219392500Y-171450000D03*
D12*
X210502500Y-168910000D03*
X216852500Y-166370000D03*
%TD*%
D10*
%TO.C,MX50*%
X147320000Y-152400000D03*
D11*
X152400000Y-152400000D03*
D10*
X157480000Y-152400000D03*
D12*
X148590000Y-149860000D03*
X154940000Y-147320000D03*
%TD*%
D10*
%TO.C,MX59*%
X318770000Y-152400000D03*
D11*
X323850000Y-152400000D03*
D10*
X328930000Y-152400000D03*
D12*
X320040000Y-149860000D03*
X326390000Y-147320000D03*
%TD*%
D10*
%TO.C,MX96*%
X149701300Y-209550000D03*
D11*
X154781300Y-209550000D03*
D10*
X159861300Y-209550000D03*
D12*
X150971300Y-207010000D03*
X157321300Y-204470000D03*
%TD*%
D10*
%TO.C,MX76*%
X342582500Y-171450000D03*
D11*
X347662500Y-171450000D03*
D10*
X352742500Y-171450000D03*
D12*
X343852500Y-168910000D03*
X350202500Y-166370000D03*
%TD*%
D14*
%TO.C,S3*%
X276225050Y-216535000D03*
D11*
X276225050Y-201295000D03*
D14*
X176212550Y-216535000D03*
D11*
X176212550Y-201295000D03*
%TD*%
D10*
%TO.C,MX36*%
X175895000Y-133350000D03*
D11*
X180975000Y-133350000D03*
D10*
X186055000Y-133350000D03*
D12*
X177165000Y-130810000D03*
X183515000Y-128270000D03*
%TD*%
D10*
%TO.C,MX60*%
X337820000Y-152400000D03*
D11*
X342900000Y-152400000D03*
D10*
X347980000Y-152400000D03*
D12*
X339090000Y-149860000D03*
X345440000Y-147320000D03*
%TD*%
D10*
%TO.C,MX86*%
X237807500Y-190500000D03*
D11*
X242887500Y-190500000D03*
D10*
X247967500Y-190500000D03*
D12*
X239077500Y-187960000D03*
X245427500Y-185420000D03*
%TD*%
D10*
%TO.C,MX99*%
X316388800Y-209550000D03*
D11*
X321468800Y-209550000D03*
D10*
X326548800Y-209550000D03*
D12*
X317658800Y-207010000D03*
X324008800Y-204470000D03*
%TD*%
D10*
%TO.C,MX54*%
X223520000Y-152400000D03*
D11*
X228600000Y-152400000D03*
D10*
X233680000Y-152400000D03*
D12*
X224790000Y-149860000D03*
X231140000Y-147320000D03*
%TD*%
D10*
%TO.C,MX8*%
X247332500Y-85725000D03*
D11*
X252412500Y-85725000D03*
D10*
X257492500Y-85725000D03*
D12*
X248602500Y-83185000D03*
X254952500Y-80645000D03*
%TD*%
D10*
%TO.C,MX29*%
X380682500Y-109537500D03*
D11*
X385762500Y-109537500D03*
D10*
X390842500Y-109537500D03*
D12*
X381952500Y-106997500D03*
X388302500Y-104457500D03*
%TD*%
D10*
%TO.C,MX79*%
X102076300Y-190500000D03*
D11*
X107156300Y-190500000D03*
D10*
X112236300Y-190500000D03*
D12*
X103346300Y-187960000D03*
X109696300Y-185420000D03*
%TD*%
D10*
%TO.C,MX90*%
X314007500Y-190500000D03*
D11*
X319087500Y-190500000D03*
D10*
X324167500Y-190500000D03*
D12*
X315277500Y-187960000D03*
X321627500Y-185420000D03*
%TD*%
D10*
%TO.C,MX68*%
X190182500Y-171450000D03*
D11*
X195262500Y-171450000D03*
D10*
X200342500Y-171450000D03*
D12*
X191452500Y-168910000D03*
X197802500Y-166370000D03*
%TD*%
D15*
%TO.C,D43*%
X317500000Y-135793700D03*
X317500000Y-132493700D03*
%TD*%
%TO.C,D32*%
X107950000Y-135793700D03*
X107950000Y-132493700D03*
%TD*%
%TO.C,D65*%
X141287500Y-173831200D03*
X141287500Y-170531200D03*
%TD*%
%TO.C,D51*%
X174625000Y-154843700D03*
X174625000Y-151543700D03*
%TD*%
%TO.C,D98*%
X300831300Y-211993700D03*
X300831300Y-208693700D03*
%TD*%
%TO.C,D96*%
X157956300Y-211993700D03*
X157956300Y-208693700D03*
%TD*%
%TO.C,D3*%
X150812500Y-88168700D03*
X150812500Y-84868700D03*
%TD*%
%TO.C,D80*%
X131762500Y-192943700D03*
X131762500Y-189643700D03*
%TD*%
%TO.C,D55*%
X250825000Y-154843700D03*
X250825000Y-151543700D03*
%TD*%
%TO.C,D10*%
X298450000Y-88168700D03*
X298450000Y-84868700D03*
%TD*%
%TO.C,D13*%
X388937500Y-88168700D03*
X388937500Y-84868700D03*
%TD*%
%TO.C,D18*%
X155575000Y-111981200D03*
X155575000Y-108681200D03*
%TD*%
%TO.C,D50*%
X155575000Y-154843700D03*
X155575000Y-151543700D03*
%TD*%
%TO.C,D85*%
X227012500Y-192943700D03*
X227012500Y-189643700D03*
%TD*%
%TO.C,D54*%
X231775000Y-154843700D03*
X231775000Y-151543700D03*
%TD*%
%TO.C,D45*%
X365125000Y-135793700D03*
X365125000Y-132493700D03*
%TD*%
%TO.C,D40*%
X260350000Y-135793700D03*
X260350000Y-132493700D03*
%TD*%
%TO.C,D83*%
X188912500Y-192943700D03*
X188912500Y-189643700D03*
%TD*%
%TO.C,D6*%
X212725000Y-88168700D03*
X212725000Y-84868700D03*
%TD*%
%TO.C,D35*%
X165100000Y-135793700D03*
X165100000Y-132493700D03*
%TD*%
%TO.C,D64*%
X115093800Y-173893700D03*
X115093800Y-170593700D03*
%TD*%
%TO.C,D1*%
X107950000Y-88168700D03*
X107950000Y-84868700D03*
%TD*%
%TO.C,D21*%
X222250000Y-111918700D03*
X222250000Y-108618700D03*
%TD*%
%TO.C,D101*%
X374650000Y-211993700D03*
X374650000Y-208693700D03*
%TD*%
%TO.C,D28*%
X365125000Y-111981200D03*
X365125000Y-108681200D03*
%TD*%
%TO.C,D76*%
X350837500Y-173893700D03*
X350837500Y-170593700D03*
%TD*%
%TO.C,D39*%
X241300000Y-135793700D03*
X241300000Y-132493700D03*
%TD*%
%TO.C,D19*%
X174625000Y-111981200D03*
X174625000Y-108681200D03*
%TD*%
%TO.C,D20*%
X193675000Y-111981200D03*
X193675000Y-108681200D03*
%TD*%
%TO.C,D78*%
X427037500Y-173956200D03*
X427037500Y-170656200D03*
%TD*%
%TO.C,D89*%
X303212500Y-192943700D03*
X303212500Y-189643700D03*
%TD*%
%TO.C,D72*%
X274637500Y-173893700D03*
X274637500Y-170593700D03*
%TD*%
D16*
%TO.C,F1*%
X272256300Y-53243700D03*
X272256300Y-50268700D03*
%TD*%
D15*
%TO.C,D26*%
X327025000Y-111981200D03*
X327025000Y-108681200D03*
%TD*%
%TO.C,D53*%
X212725000Y-154781200D03*
X212725000Y-151481200D03*
%TD*%
%TO.C,D70*%
X236537500Y-173831200D03*
X236537500Y-170531200D03*
%TD*%
%TO.C,D47*%
X427037500Y-135793700D03*
X427037500Y-132493700D03*
%TD*%
%TO.C,D63*%
X427037500Y-154843700D03*
X427037500Y-151543700D03*
%TD*%
%TO.C,D49*%
X136525000Y-154843700D03*
X136525000Y-151543700D03*
%TD*%
%TO.C,D2*%
X127000000Y-88168700D03*
X127000000Y-84868700D03*
%TD*%
%TO.C,D15*%
X427037500Y-88106200D03*
X427037500Y-84806200D03*
%TD*%
%TO.C,D36*%
X184150000Y-135793700D03*
X184150000Y-132493700D03*
%TD*%
D17*
%TO.C,C2*%
X411100723Y-67406977D03*
X409633477Y-68874223D03*
%TD*%
D15*
%TO.C,D38*%
X222250000Y-135793700D03*
X222250000Y-132493700D03*
%TD*%
%TO.C,D71*%
X255587500Y-173893700D03*
X255587500Y-170593700D03*
%TD*%
%TO.C,D46*%
X407987500Y-135793700D03*
X407987500Y-132493700D03*
%TD*%
%TO.C,D31*%
X427037500Y-111981200D03*
X427037500Y-108681200D03*
%TD*%
%TO.C,D86*%
X246062500Y-192943700D03*
X246062500Y-189643700D03*
%TD*%
%TO.C,D37*%
X203200000Y-135793700D03*
X203200000Y-132493700D03*
%TD*%
%TO.C,D34*%
X146050000Y-135793700D03*
X146050000Y-132493700D03*
%TD*%
%TO.C,D52*%
X193675000Y-154843700D03*
X193675000Y-151543700D03*
%TD*%
%TO.C,D24*%
X279400000Y-111981200D03*
X279400000Y-108681200D03*
%TD*%
%TO.C,D57*%
X288925000Y-154843700D03*
X288925000Y-151543700D03*
%TD*%
%TO.C,D100*%
X355600000Y-211993700D03*
X355600000Y-208693700D03*
%TD*%
%TO.C,D4*%
X169862500Y-88168700D03*
X169862500Y-84868700D03*
%TD*%
%TO.C,D77*%
X407987500Y-173893700D03*
X407987500Y-170593700D03*
%TD*%
%TO.C,D41*%
X279400000Y-135793700D03*
X279400000Y-132493700D03*
%TD*%
%TO.C,D61*%
X369887500Y-164368700D03*
X369887500Y-161068700D03*
%TD*%
%TO.C,D69*%
X217487500Y-173893700D03*
X217487500Y-170593700D03*
%TD*%
%TO.C,D102*%
X393700000Y-211993700D03*
X393700000Y-208693700D03*
%TD*%
%TO.C,D68*%
X198437500Y-173893700D03*
X198437500Y-170593700D03*
%TD*%
%TO.C,D99*%
X324643800Y-211993700D03*
X324643800Y-208693700D03*
%TD*%
%TO.C,D66*%
X160337500Y-173893700D03*
X160337500Y-170593700D03*
%TD*%
%TO.C,D27*%
X346075000Y-111981200D03*
X346075000Y-108681200D03*
%TD*%
%TO.C,D75*%
X331787500Y-173893700D03*
X331787500Y-170593700D03*
%TD*%
%TO.C,D97*%
X229393800Y-211993700D03*
X229393800Y-208693700D03*
%TD*%
%TO.C,D95*%
X134143800Y-211993700D03*
X134143800Y-208693700D03*
%TD*%
%TO.C,D8*%
X255587500Y-88168700D03*
X255587500Y-84868700D03*
%TD*%
%TO.C,D17*%
X136525000Y-111981200D03*
X136525000Y-108681200D03*
%TD*%
%TO.C,D23*%
X260350000Y-111981200D03*
X260350000Y-108681200D03*
%TD*%
%TO.C,D33*%
X127000000Y-135793700D03*
X127000000Y-132493700D03*
%TD*%
%TO.C,D90*%
X322262500Y-192943700D03*
X322262500Y-189643700D03*
%TD*%
%TO.C,D25*%
X307975000Y-111981200D03*
X307975000Y-108681200D03*
%TD*%
%TO.C,D87*%
X265112500Y-192943700D03*
X265112500Y-189643700D03*
%TD*%
%TO.C,D42*%
X298450000Y-135793700D03*
X298450000Y-132493700D03*
%TD*%
%TO.C,D16*%
X107950000Y-111981200D03*
X107950000Y-108681200D03*
%TD*%
%TO.C,D29*%
X388937500Y-111981200D03*
X388937500Y-108681200D03*
%TD*%
%TO.C,D88*%
X284162500Y-192943700D03*
X284162500Y-189643700D03*
%TD*%
%TO.C,D11*%
X322262500Y-88168700D03*
X322262500Y-84868700D03*
%TD*%
%TO.C,D48*%
X112712500Y-154843700D03*
X112712500Y-151543700D03*
%TD*%
%TO.C,D56*%
X269875000Y-154843700D03*
X269875000Y-151543700D03*
%TD*%
%TO.C,D60*%
X346075000Y-154843700D03*
X346075000Y-151543700D03*
%TD*%
%TO.C,D81*%
X150812500Y-192943700D03*
X150812500Y-189643700D03*
%TD*%
%TO.C,D73*%
X293687500Y-173893700D03*
X293687500Y-170593700D03*
%TD*%
%TO.C,D91*%
X348456300Y-192943700D03*
X348456300Y-189643700D03*
%TD*%
%TO.C,D30*%
X407987500Y-111981200D03*
X407987500Y-108681200D03*
%TD*%
%TO.C,D22*%
X241300000Y-111981200D03*
X241300000Y-108681200D03*
%TD*%
%TO.C,D7*%
X236537500Y-88168700D03*
X236537500Y-84868700D03*
%TD*%
%TO.C,D74*%
X312737500Y-173893700D03*
X312737500Y-170593700D03*
%TD*%
%TO.C,D5*%
X193675000Y-88168700D03*
X193675000Y-84868700D03*
%TD*%
%TO.C,D79*%
X110331300Y-192943700D03*
X110331300Y-189643700D03*
%TD*%
%TO.C,D62*%
X407987500Y-154843700D03*
X407987500Y-151543700D03*
%TD*%
%TO.C,D84*%
X207962500Y-192943700D03*
X207962500Y-189643700D03*
%TD*%
%TO.C,D9*%
X279400000Y-88168700D03*
X279400000Y-84868700D03*
%TD*%
%TO.C,D44*%
X336550000Y-135793700D03*
X336550000Y-132493700D03*
%TD*%
%TO.C,D92*%
X374650000Y-192943700D03*
X374650000Y-189643700D03*
%TD*%
%TO.C,D12*%
X341312500Y-88168700D03*
X341312500Y-84868700D03*
%TD*%
%TO.C,D58*%
X307975000Y-154843700D03*
X307975000Y-151543700D03*
%TD*%
%TO.C,D67*%
X179387500Y-173893700D03*
X179387500Y-170593700D03*
%TD*%
%TO.C,D93*%
X427037500Y-192943700D03*
X427037500Y-189643700D03*
%TD*%
%TO.C,D94*%
X110331300Y-211993700D03*
X110331300Y-208693700D03*
%TD*%
%TO.C,D14*%
X407987500Y-88168700D03*
X407987500Y-84868700D03*
%TD*%
%TO.C,D82*%
X169862500Y-192943700D03*
X169862500Y-189643700D03*
%TD*%
%TO.C,D59*%
X327025000Y-154843700D03*
X327025000Y-151543700D03*
%TD*%
M02*
