M48
; DRILL file {KiCad 7.0.8} date Thu Oct 19 20:38:57 2023
; FORMAT={-:-/ absolute / inch / decimal}
; #@! TF.CreationDate,2023-10-19T20:38:57-05:00
; #@! TF.GenerationSoftware,Kicad,Pcbnew,7.0.8
; #@! TF.FileFunction,NonPlated,1,2,NPTH
FMAT,2
INCH
; #@! TA.AperFunction,NonPlated,NPTH,ComponentDrill
T1C0.0689
; #@! TA.AperFunction,NonPlated,NPTH,ComponentDrill
T2C0.1570
%
G90
G05
T1
X3.925Y-3.375
X3.925Y-4.3125
X3.925Y-5.25
X4.0188Y-7.5
X4.0188Y-8.25
X4.1125Y-6.0
X4.2063Y-6.75
X4.325Y-3.375
X4.325Y-4.3125
X4.325Y-5.25
X4.4188Y-7.5
X4.4188Y-8.25
X4.5125Y-6.0
X4.6063Y-6.75
X4.675Y-3.375
X4.675Y-5.25
X4.8625Y-7.5
X4.9563Y-8.25
X5.05Y-4.3125
X5.05Y-6.0
X5.075Y-3.375
X5.075Y-5.25
X5.2375Y-6.75
X5.2625Y-7.5
X5.3563Y-8.25
X5.425Y-5.25
X5.45Y-4.3125
X5.45Y-6.0
X5.6125Y-3.375
X5.6125Y-7.5
X5.6375Y-6.75
X5.798Y-4.3125
X5.8Y-6.0
X5.825Y-5.25
X5.8938Y-8.25
X5.9875Y-6.75
X6.0125Y-3.375
X6.0125Y-7.5
X6.175Y-5.25
X6.198Y-4.3125
X6.2Y-6.0
X6.2938Y-8.25
X6.3625Y-3.375
X6.3625Y-7.5
X6.3875Y-6.75
X6.5461Y-4.3125
X6.55Y-6.0
X6.575Y-5.25
X6.7375Y-6.75
X6.7625Y-3.375
X6.7625Y-7.5
X6.925Y-5.25
X6.9461Y-4.3125
X6.95Y-6.0
X7.1125Y-7.5
X7.1375Y-6.75
X7.2941Y-4.3125
X7.3Y-3.375
X7.3Y-6.0
X7.325Y-5.25
X7.4875Y-6.75
X7.5125Y-7.5
X7.675Y-5.25
X7.6941Y-4.3125
X7.7Y-3.375
X7.7Y-6.0
X7.8625Y-7.5
X7.8875Y-6.75
X8.05Y-3.375
X8.05Y-6.0
X8.075Y-5.25
X8.2375Y-6.75
X8.2625Y-7.5
X8.425Y-4.3125
X8.425Y-5.25
X8.45Y-3.375
X8.45Y-6.0
X8.6125Y-7.5
X8.6375Y-6.75
X8.7063Y-8.25
X8.8Y-6.0
X8.825Y-4.3125
X8.825Y-5.25
X8.9875Y-3.375
X8.9875Y-6.75
X9.0125Y-7.5
X9.1063Y-8.25
X9.175Y-4.3125
X9.175Y-5.25
X9.2Y-6.0
X9.3625Y-7.5
X9.3875Y-3.375
X9.3875Y-6.75
X9.55Y-6.0
X9.575Y-4.3125
X9.575Y-5.25
X9.7375Y-3.375
X9.7375Y-6.75
X9.7625Y-7.5
X9.925Y-4.3125
X9.925Y-5.25
X9.95Y-6.0
X10.1125Y-7.5
X10.1375Y-3.375
X10.1375Y-6.75
X10.3Y-6.0
X10.325Y-4.3125
X10.325Y-5.25
X10.4875Y-6.75
X10.5125Y-7.5
X10.675Y-3.375
X10.675Y-4.3125
X10.675Y-5.25
X10.7Y-6.0
X10.8625Y-7.5
X10.8875Y-6.75
X11.05Y-6.0
X11.075Y-3.375
X11.075Y-4.3125
X11.075Y-5.25
X11.2375Y-6.75
X11.2625Y-7.5
X11.425Y-3.375
X11.425Y-5.25
X11.45Y-6.0
X11.5188Y-8.25
X11.6125Y-7.5
X11.6375Y-6.75
X11.8Y-4.3125
X11.8Y-6.0
X11.825Y-3.375
X11.825Y-5.25
X11.9188Y-8.25
X11.9875Y-6.75
X12.0125Y-7.5
X12.175Y-5.25
X12.2Y-4.3125
X12.2Y-6.0
X12.3625Y-3.375
X12.3625Y-7.5
X12.3875Y-6.75
X12.4563Y-8.25
X12.55Y-4.3125
X12.55Y-6.0
X12.575Y-5.25
X12.7375Y-6.75
X12.7625Y-3.375
X12.7625Y-7.5
X12.8563Y-8.25
X12.925Y-5.25
X12.95Y-4.3125
X12.95Y-6.0
X13.1125Y-3.375
X13.1375Y-6.75
X13.3Y-4.3125
X13.3Y-6.0
X13.325Y-5.25
X13.3938Y-7.5
X13.4875Y-6.75
X13.5125Y-3.375
X13.675Y-8.25
X13.7Y-4.3125
X13.7Y-6.0
X13.7938Y-7.5
X13.8875Y-6.75
X14.05Y-4.3125
X14.05Y-5.25
X14.075Y-8.25
X14.2375Y-6.375
X14.425Y-7.5
X14.425Y-8.25
X14.45Y-4.3125
X14.45Y-5.25
X14.6375Y-6.375
X14.825Y-7.5
X14.825Y-8.25
X14.9875Y-3.375
X14.9875Y-4.3125
X15.175Y-8.25
X15.3875Y-3.375
X15.3875Y-4.3125
X15.575Y-8.25
X15.7375Y-3.375
X15.7375Y-4.3125
X15.7375Y-5.25
X15.7375Y-6.0
X15.7375Y-6.75
X16.1375Y-3.375
X16.1375Y-4.3125
X16.1375Y-5.25
X16.1375Y-6.0
X16.1375Y-6.75
X16.4875Y-3.375
X16.4875Y-4.3125
X16.4875Y-5.25
X16.4875Y-6.0
X16.4875Y-6.75
X16.4875Y-7.5
X16.8875Y-3.375
X16.8875Y-4.3125
X16.8875Y-5.25
X16.8875Y-6.0
X16.8875Y-6.75
X16.8875Y-7.5
T2
X4.125Y-3.375
X4.125Y-4.3125
X4.125Y-5.25
X4.2188Y-7.5
X4.2188Y-8.25
X4.3125Y-6.0
X4.4063Y-6.75
X4.875Y-3.375
X4.875Y-5.25
X5.0625Y-7.5
X5.1563Y-8.25
X5.25Y-4.3125
X5.25Y-6.0
X5.4375Y-6.75
X5.625Y-5.25
X5.8125Y-3.375
X5.8125Y-7.5
X5.998Y-4.3125
X6.0Y-6.0
X6.0938Y-8.25
X6.1875Y-6.75
X6.375Y-5.25
X6.5625Y-3.375
X6.5625Y-7.5
X6.7461Y-4.3125
X6.75Y-6.0
X6.9375Y-6.75
X6.9375Y-7.925
X7.125Y-5.25
X7.3125Y-7.5
X7.4941Y-4.3125
X7.5Y-3.375
X7.5Y-6.0
X7.6875Y-6.75
X7.875Y-5.25
X8.0625Y-7.5
X8.25Y-3.375
X8.25Y-6.0
X8.4375Y-6.75
X8.625Y-4.3125
X8.625Y-5.25
X8.8125Y-7.5
X8.9063Y-8.25
X9.0Y-6.0
X9.1875Y-3.375
X9.1875Y-6.75
X9.375Y-4.3125
X9.375Y-5.25
X9.5625Y-7.5
X9.75Y-6.0
X9.9375Y-3.375
X9.9375Y-6.75
X10.125Y-4.3125
X10.125Y-5.25
X10.3125Y-7.5
X10.5Y-6.0
X10.6875Y-6.75
X10.875Y-3.375
X10.875Y-4.3125
X10.875Y-5.25
X10.875Y-7.925
X11.0625Y-7.5
X11.25Y-6.0
X11.4375Y-6.75
X11.625Y-3.375
X11.625Y-5.25
X11.7188Y-8.25
X11.8125Y-7.5
X12.0Y-4.3125
X12.0Y-6.0
X12.1875Y-6.75
X12.375Y-5.25
X12.5625Y-3.375
X12.5625Y-7.5
X12.6563Y-8.25
X12.75Y-4.3125
X12.75Y-6.0
X12.9375Y-6.75
X13.125Y-5.25
X13.3125Y-3.375
X13.5Y-4.3125
X13.5Y-6.0
X13.5938Y-7.5
X13.6875Y-6.75
X13.7812Y-4.925
X13.875Y-8.25
X14.1125Y-5.9062
X14.1125Y-6.8438
X14.25Y-4.3125
X14.25Y-5.25
X14.4375Y-6.375
X14.625Y-7.5
X14.625Y-8.25
X14.7188Y-4.925
X15.1875Y-3.375
X15.1875Y-4.3125
X15.375Y-8.25
X15.9375Y-3.375
X15.9375Y-4.3125
X15.9375Y-5.25
X15.9375Y-6.0
X15.9375Y-6.75
X16.6875Y-3.375
X16.6875Y-4.3125
X16.6875Y-5.25
X16.6875Y-6.0
X16.6875Y-6.75
X16.6875Y-7.5
T0
M30
