%TF.GenerationSoftware,KiCad,Pcbnew,7.0.8*%
%TF.CreationDate,2023-10-19T20:38:54-05:00*%
%TF.ProjectId,VesselV2,56657373-656c-4563-922e-6b696361645f,rev?*%
%TF.SameCoordinates,Original*%
%TF.FileFunction,Paste,Bot*%
%TF.FilePolarity,Positive*%
%FSLAX46Y46*%
G04 Gerber Fmt 4.6, Leading zero omitted, Abs format (unit mm)*
G04 Created by KiCad (PCBNEW 7.0.8) date 2023-10-19 20:38:54*
%MOMM*%
%LPD*%
G01*
G04 APERTURE LIST*
G04 Aperture macros list*
%AMRoundRect*
0 Rectangle with rounded corners*
0 $1 Rounding radius*
0 $2 $3 $4 $5 $6 $7 $8 $9 X,Y pos of 4 corners*
0 Add a 4 corners polygon primitive as box body*
4,1,4,$2,$3,$4,$5,$6,$7,$8,$9,$2,$3,0*
0 Add four circle primitives for the rounded corners*
1,1,$1+$1,$2,$3*
1,1,$1+$1,$4,$5*
1,1,$1+$1,$6,$7*
1,1,$1+$1,$8,$9*
0 Add four rect primitives between the rounded corners*
20,1,$1+$1,$2,$3,$4,$5,0*
20,1,$1+$1,$4,$5,$6,$7,0*
20,1,$1+$1,$6,$7,$8,$9,0*
20,1,$1+$1,$8,$9,$2,$3,0*%
G04 Aperture macros list end*
%ADD10RoundRect,0.225000X0.375000X-0.225000X0.375000X0.225000X-0.375000X0.225000X-0.375000X-0.225000X0*%
%ADD11RoundRect,0.250001X0.624999X-0.462499X0.624999X0.462499X-0.624999X0.462499X-0.624999X-0.462499X0*%
%ADD12RoundRect,0.250000X-0.097227X0.574524X-0.574524X0.097227X0.097227X-0.574524X0.574524X-0.097227X0*%
G04 APERTURE END LIST*
D10*
%TO.C,D43*%
X317500000Y-135793700D03*
X317500000Y-132493700D03*
%TD*%
%TO.C,D32*%
X107950000Y-135793700D03*
X107950000Y-132493700D03*
%TD*%
%TO.C,D65*%
X141287500Y-173831200D03*
X141287500Y-170531200D03*
%TD*%
%TO.C,D51*%
X174625000Y-154843700D03*
X174625000Y-151543700D03*
%TD*%
%TO.C,D98*%
X300831300Y-211993700D03*
X300831300Y-208693700D03*
%TD*%
%TO.C,D96*%
X157956300Y-211993700D03*
X157956300Y-208693700D03*
%TD*%
%TO.C,D3*%
X150812500Y-88168700D03*
X150812500Y-84868700D03*
%TD*%
%TO.C,D80*%
X131762500Y-192943700D03*
X131762500Y-189643700D03*
%TD*%
%TO.C,D55*%
X250825000Y-154843700D03*
X250825000Y-151543700D03*
%TD*%
%TO.C,D10*%
X298450000Y-88168700D03*
X298450000Y-84868700D03*
%TD*%
%TO.C,D13*%
X388937500Y-88168700D03*
X388937500Y-84868700D03*
%TD*%
%TO.C,D18*%
X155575000Y-111981200D03*
X155575000Y-108681200D03*
%TD*%
%TO.C,D50*%
X155575000Y-154843700D03*
X155575000Y-151543700D03*
%TD*%
%TO.C,D85*%
X227012500Y-192943700D03*
X227012500Y-189643700D03*
%TD*%
%TO.C,D54*%
X231775000Y-154843700D03*
X231775000Y-151543700D03*
%TD*%
%TO.C,D45*%
X365125000Y-135793700D03*
X365125000Y-132493700D03*
%TD*%
%TO.C,D40*%
X260350000Y-135793700D03*
X260350000Y-132493700D03*
%TD*%
%TO.C,D83*%
X188912500Y-192943700D03*
X188912500Y-189643700D03*
%TD*%
%TO.C,D6*%
X212725000Y-88168700D03*
X212725000Y-84868700D03*
%TD*%
%TO.C,D35*%
X165100000Y-135793700D03*
X165100000Y-132493700D03*
%TD*%
%TO.C,D64*%
X115093800Y-173893700D03*
X115093800Y-170593700D03*
%TD*%
%TO.C,D1*%
X107950000Y-88168700D03*
X107950000Y-84868700D03*
%TD*%
%TO.C,D21*%
X222250000Y-111918700D03*
X222250000Y-108618700D03*
%TD*%
%TO.C,D101*%
X374650000Y-211993700D03*
X374650000Y-208693700D03*
%TD*%
%TO.C,D28*%
X365125000Y-111981200D03*
X365125000Y-108681200D03*
%TD*%
%TO.C,D76*%
X350837500Y-173893700D03*
X350837500Y-170593700D03*
%TD*%
%TO.C,D39*%
X241300000Y-135793700D03*
X241300000Y-132493700D03*
%TD*%
%TO.C,D19*%
X174625000Y-111981200D03*
X174625000Y-108681200D03*
%TD*%
%TO.C,D20*%
X193675000Y-111981200D03*
X193675000Y-108681200D03*
%TD*%
%TO.C,D78*%
X427037500Y-173956200D03*
X427037500Y-170656200D03*
%TD*%
%TO.C,D89*%
X303212500Y-192943700D03*
X303212500Y-189643700D03*
%TD*%
%TO.C,D72*%
X274637500Y-173893700D03*
X274637500Y-170593700D03*
%TD*%
D11*
%TO.C,F1*%
X272256300Y-53243700D03*
X272256300Y-50268700D03*
%TD*%
D10*
%TO.C,D26*%
X327025000Y-111981200D03*
X327025000Y-108681200D03*
%TD*%
%TO.C,D53*%
X212725000Y-154781200D03*
X212725000Y-151481200D03*
%TD*%
%TO.C,D70*%
X236537500Y-173831200D03*
X236537500Y-170531200D03*
%TD*%
%TO.C,D47*%
X427037500Y-135793700D03*
X427037500Y-132493700D03*
%TD*%
%TO.C,D63*%
X427037500Y-154843700D03*
X427037500Y-151543700D03*
%TD*%
%TO.C,D49*%
X136525000Y-154843700D03*
X136525000Y-151543700D03*
%TD*%
%TO.C,D2*%
X127000000Y-88168700D03*
X127000000Y-84868700D03*
%TD*%
%TO.C,D15*%
X427037500Y-88106200D03*
X427037500Y-84806200D03*
%TD*%
%TO.C,D36*%
X184150000Y-135793700D03*
X184150000Y-132493700D03*
%TD*%
D12*
%TO.C,C2*%
X411100723Y-67406977D03*
X409633477Y-68874223D03*
%TD*%
D10*
%TO.C,D38*%
X222250000Y-135793700D03*
X222250000Y-132493700D03*
%TD*%
%TO.C,D71*%
X255587500Y-173893700D03*
X255587500Y-170593700D03*
%TD*%
%TO.C,D46*%
X407987500Y-135793700D03*
X407987500Y-132493700D03*
%TD*%
%TO.C,D31*%
X427037500Y-111981200D03*
X427037500Y-108681200D03*
%TD*%
%TO.C,D86*%
X246062500Y-192943700D03*
X246062500Y-189643700D03*
%TD*%
%TO.C,D37*%
X203200000Y-135793700D03*
X203200000Y-132493700D03*
%TD*%
%TO.C,D34*%
X146050000Y-135793700D03*
X146050000Y-132493700D03*
%TD*%
%TO.C,D52*%
X193675000Y-154843700D03*
X193675000Y-151543700D03*
%TD*%
%TO.C,D24*%
X279400000Y-111981200D03*
X279400000Y-108681200D03*
%TD*%
%TO.C,D57*%
X288925000Y-154843700D03*
X288925000Y-151543700D03*
%TD*%
%TO.C,D100*%
X355600000Y-211993700D03*
X355600000Y-208693700D03*
%TD*%
%TO.C,D4*%
X169862500Y-88168700D03*
X169862500Y-84868700D03*
%TD*%
%TO.C,D77*%
X407987500Y-173893700D03*
X407987500Y-170593700D03*
%TD*%
%TO.C,D41*%
X279400000Y-135793700D03*
X279400000Y-132493700D03*
%TD*%
%TO.C,D61*%
X369887500Y-164368700D03*
X369887500Y-161068700D03*
%TD*%
%TO.C,D69*%
X217487500Y-173893700D03*
X217487500Y-170593700D03*
%TD*%
%TO.C,D102*%
X393700000Y-211993700D03*
X393700000Y-208693700D03*
%TD*%
%TO.C,D68*%
X198437500Y-173893700D03*
X198437500Y-170593700D03*
%TD*%
%TO.C,D99*%
X324643800Y-211993700D03*
X324643800Y-208693700D03*
%TD*%
%TO.C,D66*%
X160337500Y-173893700D03*
X160337500Y-170593700D03*
%TD*%
%TO.C,D27*%
X346075000Y-111981200D03*
X346075000Y-108681200D03*
%TD*%
%TO.C,D75*%
X331787500Y-173893700D03*
X331787500Y-170593700D03*
%TD*%
%TO.C,D97*%
X229393800Y-211993700D03*
X229393800Y-208693700D03*
%TD*%
%TO.C,D95*%
X134143800Y-211993700D03*
X134143800Y-208693700D03*
%TD*%
%TO.C,D8*%
X255587500Y-88168700D03*
X255587500Y-84868700D03*
%TD*%
%TO.C,D17*%
X136525000Y-111981200D03*
X136525000Y-108681200D03*
%TD*%
%TO.C,D23*%
X260350000Y-111981200D03*
X260350000Y-108681200D03*
%TD*%
%TO.C,D33*%
X127000000Y-135793700D03*
X127000000Y-132493700D03*
%TD*%
%TO.C,D90*%
X322262500Y-192943700D03*
X322262500Y-189643700D03*
%TD*%
%TO.C,D25*%
X307975000Y-111981200D03*
X307975000Y-108681200D03*
%TD*%
%TO.C,D87*%
X265112500Y-192943700D03*
X265112500Y-189643700D03*
%TD*%
%TO.C,D42*%
X298450000Y-135793700D03*
X298450000Y-132493700D03*
%TD*%
%TO.C,D16*%
X107950000Y-111981200D03*
X107950000Y-108681200D03*
%TD*%
%TO.C,D29*%
X388937500Y-111981200D03*
X388937500Y-108681200D03*
%TD*%
%TO.C,D88*%
X284162500Y-192943700D03*
X284162500Y-189643700D03*
%TD*%
%TO.C,D11*%
X322262500Y-88168700D03*
X322262500Y-84868700D03*
%TD*%
%TO.C,D48*%
X112712500Y-154843700D03*
X112712500Y-151543700D03*
%TD*%
%TO.C,D56*%
X269875000Y-154843700D03*
X269875000Y-151543700D03*
%TD*%
%TO.C,D60*%
X346075000Y-154843700D03*
X346075000Y-151543700D03*
%TD*%
%TO.C,D81*%
X150812500Y-192943700D03*
X150812500Y-189643700D03*
%TD*%
%TO.C,D73*%
X293687500Y-173893700D03*
X293687500Y-170593700D03*
%TD*%
%TO.C,D91*%
X348456300Y-192943700D03*
X348456300Y-189643700D03*
%TD*%
%TO.C,D30*%
X407987500Y-111981200D03*
X407987500Y-108681200D03*
%TD*%
%TO.C,D22*%
X241300000Y-111981200D03*
X241300000Y-108681200D03*
%TD*%
%TO.C,D7*%
X236537500Y-88168700D03*
X236537500Y-84868700D03*
%TD*%
%TO.C,D74*%
X312737500Y-173893700D03*
X312737500Y-170593700D03*
%TD*%
%TO.C,D5*%
X193675000Y-88168700D03*
X193675000Y-84868700D03*
%TD*%
%TO.C,D79*%
X110331300Y-192943700D03*
X110331300Y-189643700D03*
%TD*%
%TO.C,D62*%
X407987500Y-154843700D03*
X407987500Y-151543700D03*
%TD*%
%TO.C,D84*%
X207962500Y-192943700D03*
X207962500Y-189643700D03*
%TD*%
%TO.C,D9*%
X279400000Y-88168700D03*
X279400000Y-84868700D03*
%TD*%
%TO.C,D44*%
X336550000Y-135793700D03*
X336550000Y-132493700D03*
%TD*%
%TO.C,D92*%
X374650000Y-192943700D03*
X374650000Y-189643700D03*
%TD*%
%TO.C,D12*%
X341312500Y-88168700D03*
X341312500Y-84868700D03*
%TD*%
%TO.C,D58*%
X307975000Y-154843700D03*
X307975000Y-151543700D03*
%TD*%
%TO.C,D67*%
X179387500Y-173893700D03*
X179387500Y-170593700D03*
%TD*%
%TO.C,D93*%
X427037500Y-192943700D03*
X427037500Y-189643700D03*
%TD*%
%TO.C,D94*%
X110331300Y-211993700D03*
X110331300Y-208693700D03*
%TD*%
%TO.C,D14*%
X407987500Y-88168700D03*
X407987500Y-84868700D03*
%TD*%
%TO.C,D82*%
X169862500Y-192943700D03*
X169862500Y-189643700D03*
%TD*%
%TO.C,D59*%
X327025000Y-154843700D03*
X327025000Y-151543700D03*
%TD*%
M02*
