M48
; DRILL file {KiCad 7.0.8} date Thu Oct 19 20:38:57 2023
; FORMAT={-:-/ absolute / inch / decimal}
; #@! TF.CreationDate,2023-10-19T20:38:57-05:00
; #@! TF.GenerationSoftware,Kicad,Pcbnew,7.0.8
; #@! TF.FileFunction,Plated,1,2,PTH
FMAT,2
INCH
; #@! TA.AperFunction,Plated,PTH,ViaDrill
T1C0.0157
; #@! TA.AperFunction,Plated,PTH,ComponentDrill
T2C0.0276
; #@! TA.AperFunction,Plated,PTH,ComponentDrill
T3C0.0600
; #@! TA.AperFunction,Plated,PTH,ComponentDrill
T4C0.1200
%
G90
G05
T1
X4.3015Y-4.4602
X5.3515Y-4.4602
X6.0131Y-6.1498
X6.0735Y-4.4602
X10.381Y-2.2288
X10.5312Y-2.0139
X10.6315Y-2.0589
X14.8709Y-7.6032
X14.9725Y-2.2419
X15.0522Y-2.2434
X15.2329Y-2.2409
X15.7854Y-2.1046
X15.9048Y-2.7912
X15.9352Y-2.1634
X15.9357Y-2.6508
X15.989Y-2.9092
X16.0352Y-2.2941
X16.0434Y-2.1498
X16.0959Y-2.1539
X16.1164Y-2.4278
X16.1384Y-2.6255
X16.1444Y-2.1616
X16.1841Y-2.7116
X16.1849Y-2.5865
X16.2482Y-2.5669
X16.25Y-2.5269
X16.2629Y-2.6682
X16.7651Y-7.6032
T3
X3.975Y-3.275
X3.975Y-4.2125
X3.975Y-5.15
X4.0688Y-7.4
X4.0688Y-8.15
X4.1625Y-5.9
X4.225Y-3.175
X4.225Y-4.1125
X4.225Y-5.05
X4.2563Y-6.65
X4.3188Y-7.3
X4.3188Y-8.05
X4.4125Y-5.8
X4.5063Y-6.55
X4.725Y-3.275
X4.725Y-5.15
X4.9125Y-7.4
X4.975Y-3.175
X4.975Y-5.05
X5.0063Y-8.15
X5.1Y-4.2125
X5.1Y-5.9
X5.1625Y-7.3
X5.2563Y-8.05
X5.2875Y-6.65
X5.35Y-4.1125
X5.35Y-5.8
X5.475Y-5.15
X5.5375Y-6.55
X5.6625Y-3.275
X5.6625Y-7.4
X5.725Y-5.05
X5.848Y-4.2125
X5.85Y-5.9
X5.9125Y-3.175
X5.9125Y-7.3
X5.9438Y-8.15
X6.0375Y-6.65
X6.098Y-4.1125
X6.1Y-5.8
X6.1938Y-8.05
X6.225Y-5.15
X6.2875Y-6.55
X6.4125Y-3.275
X6.4125Y-7.4
X6.475Y-5.05
X6.5961Y-4.2125
X6.6Y-5.9
X6.6625Y-3.175
X6.6625Y-7.3
X6.7875Y-6.65
X6.8461Y-4.1125
X6.85Y-5.8
X6.975Y-5.15
X7.0375Y-6.55
X7.1625Y-7.4
X7.225Y-5.05
X7.3441Y-4.2125
X7.35Y-3.275
X7.35Y-5.9
X7.4125Y-7.3
X7.5375Y-6.65
X7.5941Y-4.1125
X7.6Y-3.175
X7.6Y-5.8
X7.725Y-5.15
X7.7875Y-6.55
X7.9125Y-7.4
X7.975Y-5.05
X8.1Y-3.275
X8.1Y-5.9
X8.1625Y-7.3
X8.2875Y-6.65
X8.35Y-3.175
X8.35Y-5.8
X8.475Y-4.2125
X8.475Y-5.15
X8.5375Y-6.55
X8.6625Y-7.4
X8.725Y-4.1125
X8.725Y-5.05
X8.7563Y-8.15
X8.85Y-5.9
X8.9125Y-7.3
X9.0063Y-8.05
X9.0375Y-3.275
X9.0375Y-6.65
X9.1Y-5.8
X9.225Y-4.2125
X9.225Y-5.15
X9.2875Y-3.175
X9.2875Y-6.55
X9.4125Y-7.4
X9.475Y-4.1125
X9.475Y-5.05
X9.6Y-5.9
X9.6625Y-7.3
X9.7875Y-3.275
X9.7875Y-6.65
X9.85Y-5.8
X9.975Y-4.2125
X9.975Y-5.15
X10.0375Y-3.175
X10.0375Y-6.55
X10.1625Y-7.4
X10.225Y-4.1125
X10.225Y-5.05
X10.35Y-5.9
X10.4125Y-7.3
X10.5375Y-6.65
X10.6Y-5.8
X10.725Y-3.275
X10.725Y-4.2125
X10.725Y-5.15
X10.7875Y-6.55
X10.9125Y-7.4
X10.975Y-3.175
X10.975Y-4.1125
X10.975Y-5.05
X11.1Y-5.9
X11.1625Y-7.3
X11.2875Y-6.65
X11.35Y-5.8
X11.475Y-3.275
X11.475Y-5.15
X11.5375Y-6.55
X11.5688Y-8.15
X11.6625Y-7.4
X11.725Y-3.175
X11.725Y-5.05
X11.8188Y-8.05
X11.85Y-4.2125
X11.85Y-5.9
X11.9125Y-7.3
X12.0375Y-6.65
X12.1Y-4.1125
X12.1Y-5.8
X12.225Y-5.15
X12.2875Y-6.55
X12.4125Y-3.275
X12.4125Y-7.4
X12.475Y-5.05
X12.5063Y-8.15
X12.6Y-4.2125
X12.6Y-5.9
X12.6625Y-3.175
X12.6625Y-7.3
X12.7563Y-8.05
X12.7875Y-6.65
X12.85Y-4.1125
X12.85Y-5.8
X12.975Y-5.15
X13.0375Y-6.55
X13.1625Y-3.275
X13.225Y-5.05
X13.35Y-4.2125
X13.35Y-5.9
X13.4125Y-3.175
X13.4438Y-7.4
X13.5375Y-6.65
X13.6Y-4.1125
X13.6Y-5.8
X13.6938Y-7.3
X13.725Y-8.15
X13.7875Y-6.55
X13.975Y-8.05
X14.1Y-4.2125
X14.1Y-5.15
X14.2875Y-6.275
X14.35Y-4.1125
X14.35Y-5.05
X14.475Y-7.4
X14.475Y-8.15
X14.5375Y-6.175
X14.725Y-7.3
X14.725Y-8.05
X15.0375Y-3.275
X15.0375Y-4.2125
X15.225Y-8.15
X15.2875Y-3.175
X15.2875Y-4.1125
X15.475Y-8.05
X15.7875Y-3.275
X15.7875Y-4.2125
X15.7875Y-5.15
X15.7875Y-5.9
X15.7875Y-6.65
X16.0375Y-3.175
X16.0375Y-4.1125
X16.0375Y-5.05
X16.0375Y-5.8
X16.0375Y-6.55
X16.5375Y-3.275
X16.5375Y-4.2125
X16.5375Y-5.15
X16.5375Y-5.9
X16.5375Y-6.65
X16.5375Y-7.4
X16.7875Y-3.175
X16.7875Y-4.1125
X16.7875Y-5.05
X16.7875Y-5.8
X16.7875Y-6.55
X16.7875Y-7.3
T4
X6.9375Y-8.525
X10.875Y-8.525
X13.7812Y-5.525
X14.7125Y-5.9062
X14.7125Y-6.8438
X14.7188Y-5.525
T2
G00X10.2313Y-1.9242
M15
G01X10.2313Y-1.9715
M16
G05
G00X10.2313Y-2.1014
M15
G01X10.2313Y-2.1486
M16
G05
G00X10.5187Y-1.9242
M15
G01X10.5187Y-1.9715
M16
G05
G00X10.5187Y-2.1014
M15
G01X10.5187Y-2.1486
M16
G05
T0
M30
